<svg width="80" height="80" viewBox="0 0 80 80" fill="none" xmlns="http://www.w3.org/2000/svg">
<g clip-path="url(#clip0_295_8616)">
<path d="M7.74395 65.5981C7.74395 65.5981 3.87995 23.1361 24.4159 14.1361C24.4159 14.1361 30.062 5.95412 42.66 7.26412C55.2599 8.57412 64.8819 18.2781 68.1039 27.0641C70.5039 33.6081 72.8799 47.4641 72.5039 63.5201C72.4599 65.3841 71.4579 67.0921 69.8659 68.0601C66.3899 70.1721 58.3339 72.8801 39.8779 72.8801C9.60595 72.8801 7.74395 65.5981 7.74395 65.5981Z" fill="#333333"/>
<path d="M49.4241 34.8262C38.3081 33.1742 31.0781 25.8122 28.7641 23.1182C28.4501 22.7522 27.8561 22.9122 27.7681 23.3882C27.2281 26.3342 25.3141 33.8282 19.2201 39.2622C19.2201 39.2622 18.1981 40.0442 17.0521 41.5802C15.3701 43.8382 14.7081 46.7142 15.1841 49.4882C17.2661 61.6162 27.4041 70.8222 39.6021 70.8222C51.0681 70.8222 60.7141 62.6902 63.5621 51.6422C64.9781 43.4362 60.0081 36.4002 49.4241 34.8262Z" fill="#FFCCA8"/>
<path d="M32.126 47.2723C33.6514 47.2723 34.888 45.7886 34.888 43.9583C34.888 42.128 33.6514 40.6443 32.126 40.6443C30.6006 40.6443 29.364 42.128 29.364 43.9583C29.364 45.7886 30.6006 47.2723 32.126 47.2723Z" fill="black"/>
<path d="M46.7039 47.2723C48.2293 47.2723 49.4659 45.7886 49.4659 43.9583C49.4659 42.128 48.2293 40.6443 46.7039 40.6443C45.1785 40.6443 43.9419 42.128 43.9419 43.9583C43.9419 45.7886 45.1785 47.2723 46.7039 47.2723Z" fill="black"/>
<path d="M42.8519 58.5164C43.4719 58.5164 43.9099 59.1104 43.7459 59.7084C43.2239 61.6104 41.4819 63.0084 39.4139 63.0084C37.3459 63.0084 35.6039 61.6104 35.0819 59.7084C34.9179 59.1124 35.3579 58.5164 35.9759 58.5164H42.8519Z" fill="#5C2F17"/>
</g>
<defs>
<clipPath id="clip0_295_8616">
<rect width="80" height="80" fill="white"/>
</clipPath>
</defs>
</svg>
