<svg width="25" height="24" viewBox="0 0 25 24" fill="none" xmlns="http://www.w3.org/2000/svg">
<path d="M21.5 11.2503V20.2503C21.5 20.4492 21.421 20.64 21.2803 20.7806C21.1397 20.9213 20.9489 21.0003 20.75 21.0003H15.5C15.3011 21.0003 15.1103 20.9213 14.9697 20.7806C14.829 20.64 14.75 20.4492 14.75 20.2503V15.3753C14.75 15.2758 14.7105 15.1804 14.6402 15.1101C14.5698 15.0398 14.4745 15.0003 14.375 15.0003H10.625C10.5255 15.0003 10.4302 15.0398 10.3598 15.1101C10.2895 15.1804 10.25 15.2758 10.25 15.3753V20.2503C10.25 20.4492 10.171 20.64 10.0303 20.7806C9.88968 20.9213 9.69891 21.0003 9.5 21.0003H4.25C4.05109 21.0003 3.86032 20.9213 3.71967 20.7806C3.57902 20.64 3.5 20.4492 3.5 20.2503V11.2503C3.50018 10.8525 3.65834 10.4711 3.93969 10.19L11.4397 2.68997C11.721 2.40888 12.1023 2.25098 12.5 2.25098C12.8977 2.25098 13.279 2.40888 13.5603 2.68997L21.0603 10.19C21.3417 10.4711 21.4998 10.8525 21.5 11.2503Z" fill="#868E96"/>
</svg>
