<svg width="80" height="80" viewBox="0 0 80 80" fill="none" xmlns="http://www.w3.org/2000/svg">
<g clip-path="url(#clip0_295_8598)">
<path d="M40.0002 73.9998C54.8235 73.9998 66.8402 60.1806 66.8402 43.1338C66.8402 26.087 54.8235 12.2678 40.0002 12.2678C25.1768 12.2678 13.1602 26.087 13.1602 43.1338C13.1602 60.1806 25.1768 73.9998 40.0002 73.9998Z" fill="#FFCCA8"/>
<path d="M17.6461 54.6699C23.5798 54.6699 28.3901 50.1578 28.3901 44.5919C28.3901 39.026 23.5798 34.5139 17.6461 34.5139C11.7124 34.5139 6.9021 39.026 6.9021 44.5919C6.9021 50.1578 11.7124 54.6699 17.6461 54.6699Z" fill="#FFCCA8"/>
<path d="M62.3541 54.6699C68.2879 54.6699 73.0981 50.1578 73.0981 44.5919C73.0981 39.026 68.2879 34.5139 62.3541 34.5139C56.4204 34.5139 51.6101 39.026 51.6101 44.5919C51.6101 50.1578 56.4204 54.6699 62.3541 54.6699Z" fill="#FFCCA8"/>
<path d="M32.46 45.9681C34.0373 45.9681 35.316 44.4333 35.316 42.5401C35.316 40.6468 34.0373 39.1121 32.46 39.1121C30.8827 39.1121 29.604 40.6468 29.604 42.5401C29.604 44.4333 30.8827 45.9681 32.46 45.9681Z" fill="black"/>
<path d="M47.5401 45.9681C49.1174 45.9681 50.3961 44.4333 50.3961 42.5401C50.3961 40.6468 49.1174 39.1121 47.5401 39.1121C45.9628 39.1121 44.6841 40.6468 44.6841 42.5401C44.6841 44.4333 45.9628 45.9681 47.5401 45.9681Z" fill="black"/>
<path d="M66.4901 41.8959L70.3861 37.8999C70.3861 37.8999 70.6721 33.6259 69.3321 27.1679C67.9921 20.7099 60.3141 9.49995 46.0581 6.57395C31.8021 3.64995 23.3941 12.8639 23.3941 12.8639C7.79608 16.7179 9.68808 38.4759 9.68808 38.4759L12.8441 41.1679C13.9141 42.0799 15.5501 41.9619 16.4161 40.8559C21.3041 34.6219 26.3801 18.2879 26.3801 18.2879C26.3801 18.2879 29.9141 29.0739 48.2121 28.8399C61.6761 28.6679 64.0201 33.7579 64.4901 41.1159C64.5541 42.1079 65.7541 42.5619 66.4901 41.8959Z" fill="#333333"/>
<path d="M43.5541 60.0798C44.1961 60.0798 44.6521 60.6958 44.4821 61.3158C43.9401 63.2818 42.1401 64.7278 40.0021 64.7278C37.8641 64.7278 36.0621 63.2838 35.5221 61.3158C35.3521 60.6978 35.8081 60.0798 36.4501 60.0798H43.5541Z" fill="#5C2F17"/>
</g>
<defs>
<clipPath id="clip0_295_8598">
<rect width="80" height="80" fill="white"/>
</clipPath>
</defs>
</svg>
