<svg width="25" height="24" viewBox="0 0 25 24" fill="none" xmlns="http://www.w3.org/2000/svg">
<path d="M16.25 10.4998C16.25 11.5381 15.9421 12.5532 15.3652 13.4165C14.7884 14.2799 13.9684 14.9528 13.0091 15.3501C12.0498 15.7475 10.9942 15.8515 9.97581 15.6489C8.95741 15.4463 8.02194 14.9463 7.28772 14.2121C6.55349 13.4779 6.05348 12.5424 5.85091 11.524C5.64833 10.5056 5.7523 9.45 6.14966 8.49068C6.54702 7.53137 7.21993 6.71143 8.08329 6.13456C8.94664 5.55768 9.96168 5.24977 11 5.24977C12.3924 5.24977 13.7278 5.8029 14.7123 6.78746C15.6969 7.77203 16.25 9.10739 16.25 10.4998ZM22.0307 21.5304C21.961 21.6001 21.8783 21.6554 21.7872 21.6932C21.6962 21.7309 21.5986 21.7504 21.5 21.7504C21.4015 21.7504 21.3039 21.7309 21.2128 21.6932C21.1218 21.6554 21.0391 21.6001 20.9694 21.5304L16.2763 16.8363C14.6442 18.1941 12.5515 18.8705 10.4335 18.7247C8.31543 18.5789 6.33514 17.6222 4.90449 16.0536C3.47384 14.485 2.70297 12.4252 2.75222 10.3027C2.80148 8.18027 3.66707 6.15849 5.16895 4.65793C6.67083 3.15738 8.69337 2.29358 10.8159 2.2462C12.9384 2.19882 14.9975 2.97151 16.5648 4.40354C18.1322 5.83558 19.0871 7.81672 19.231 9.93488C19.3749 12.053 18.6968 14.1451 17.3375 15.776L22.0307 20.4691C22.1004 20.5388 22.1557 20.6215 22.1934 20.7126C22.2312 20.8036 22.2506 20.9012 22.2506 20.9998C22.2506 21.0983 22.2312 21.1959 22.1934 21.287C22.1557 21.378 22.1004 21.4607 22.0307 21.5304ZM11 17.2498C12.3351 17.2498 13.6401 16.8539 14.7501 16.1122C15.8602 15.3705 16.7253 14.3163 17.2362 13.0829C17.7471 11.8495 17.8808 10.4923 17.6203 9.18291C17.3599 7.87354 16.717 6.67081 15.773 5.7268C14.829 4.7828 13.6263 4.13992 12.3169 3.87947C11.0075 3.61902 9.65032 3.75269 8.41692 4.26359C7.18351 4.77448 6.12931 5.63964 5.38761 6.74967C4.64591 7.8597 4.25003 9.16475 4.25003 10.4998C4.25201 12.2894 4.96381 14.0051 6.22925 15.2706C7.49469 16.536 9.21043 17.2478 11 17.2498Z" fill="#868E96"/>
</svg>
