<svg width="25" height="24" viewBox="0 0 25 24" fill="none" xmlns="http://www.w3.org/2000/svg">
<path d="M12.5 1.5C10.3127 1.50248 8.21575 2.37247 6.66911 3.91911C5.12247 5.46575 4.25248 7.56273 4.25 9.75C4.25 12.6938 5.61031 15.8138 8.1875 18.7734C9.34552 20.1108 10.6489 21.3151 12.0734 22.3641C12.1995 22.4524 12.3498 22.4998 12.5037 22.4998C12.6577 22.4998 12.808 22.4524 12.9341 22.3641C14.356 21.3147 15.6568 20.1104 16.8125 18.7734C19.3859 15.8138 20.75 12.6938 20.75 9.75C20.7475 7.56273 19.8775 5.46575 18.3309 3.91911C16.7843 2.37247 14.6873 1.50248 12.5 1.5ZM15.5 10.5H13.25V12.75C13.25 12.9489 13.171 13.1397 13.0303 13.2803C12.8897 13.421 12.6989 13.5 12.5 13.5C12.3011 13.5 12.1103 13.421 11.9697 13.2803C11.829 13.1397 11.75 12.9489 11.75 12.75V10.5H9.5C9.30109 10.5 9.11032 10.421 8.96967 10.2803C8.82902 10.1397 8.75 9.94891 8.75 9.75C8.75 9.55109 8.82902 9.36032 8.96967 9.21967C9.11032 9.07902 9.30109 9 9.5 9H11.75V6.75C11.75 6.55109 11.829 6.36032 11.9697 6.21967C12.1103 6.07902 12.3011 6 12.5 6C12.6989 6 12.8897 6.07902 13.0303 6.21967C13.171 6.36032 13.25 6.55109 13.25 6.75V9H15.5C15.6989 9 15.8897 9.07902 16.0303 9.21967C16.171 9.36032 16.25 9.55109 16.25 9.75C16.25 9.94891 16.171 10.1397 16.0303 10.2803C15.8897 10.421 15.6989 10.5 15.5 10.5Z" fill="#868E96"/>
</svg>
