<svg width="25" height="24" viewBox="0 0 25 24" fill="none" xmlns="http://www.w3.org/2000/svg">
<path d="M21.334 12C21.334 12.1989 21.255 12.3897 21.1143 12.5303C20.9737 12.671 20.7829 12.75 20.584 12.75H13.084V20.25C13.084 20.4489 13.005 20.6397 12.8643 20.7803C12.7237 20.921 12.5329 21 12.334 21C12.1351 21 11.9443 20.921 11.8037 20.7803C11.663 20.6397 11.584 20.4489 11.584 20.25V12.75H4.08398C3.88507 12.75 3.69431 12.671 3.55365 12.5303C3.413 12.3897 3.33398 12.1989 3.33398 12C3.33398 11.8011 3.413 11.6103 3.55365 11.4697C3.69431 11.329 3.88507 11.25 4.08398 11.25H11.584V3.75C11.584 3.55109 11.663 3.36032 11.8037 3.21967C11.9443 3.07902 12.1351 3 12.334 3C12.5329 3 12.7237 3.07902 12.8643 3.21967C13.005 3.36032 13.084 3.55109 13.084 3.75V11.25H20.584C20.7829 11.25 20.9737 11.329 21.1143 11.4697C21.255 11.6103 21.334 11.8011 21.334 12Z" fill="#868E96"/>
</svg>
