<svg width="16" height="16" viewBox="0 0 16 16" fill="none" xmlns="http://www.w3.org/2000/svg">
<path d="M12.8538 12.1465C12.9003 12.193 12.9372 12.2481 12.9623 12.3088C12.9874 12.3695 13.0004 12.4346 13.0004 12.5003C13.0004 12.566 12.9874 12.631 12.9623 12.6917C12.9372 12.7524 12.9003 12.8076 12.8538 12.854C12.8074 12.9005 12.7522 12.9373 12.6915 12.9625C12.6308 12.9876 12.5658 13.0006 12.5001 13.0006C12.4344 13.0006 12.3693 12.9876 12.3086 12.9625C12.248 12.9373 12.1928 12.9005 12.1463 12.854L8.00009 8.70715L3.85384 12.854C3.76002 12.9478 3.63278 13.0006 3.50009 13.0006C3.36741 13.0006 3.24017 12.9478 3.14634 12.854C3.05252 12.7602 2.99982 12.633 2.99982 12.5003C2.99982 12.3676 3.05252 12.2403 3.14634 12.1465L7.29322 8.00028L3.14634 3.85403C3.05252 3.76021 2.99982 3.63296 2.99982 3.50028C2.99982 3.3676 3.05252 3.24035 3.14634 3.14653C3.24017 3.05271 3.36741 3 3.50009 3C3.63278 3 3.76002 3.05271 3.85384 3.14653L8.00009 7.2934L12.1463 3.14653C12.2402 3.05271 12.3674 3 12.5001 3C12.6328 3 12.76 3.05271 12.8538 3.14653C12.9477 3.24035 13.0004 3.3676 13.0004 3.50028C13.0004 3.63296 12.9477 3.76021 12.8538 3.85403L8.70697 8.00028L12.8538 12.1465Z" fill="#212529"/>
</svg>
