<svg width="24" height="24" viewBox="0 0 24 24" fill="none" xmlns="http://www.w3.org/2000/svg">
<path d="M16.083 14.2865C15.694 14.2864 15.3089 14.3628 14.9505 14.5111C14.5921 14.6594 14.2678 14.8766 13.9966 15.15L10.636 13.0339C10.9004 12.3697 10.9004 11.6326 10.636 10.9684L13.9966 8.85231C14.5014 9.35889 15.1802 9.6638 15.9014 9.70792C16.6227 9.75204 17.3349 9.53222 17.9001 9.09109C18.4653 8.64996 18.8432 8.01894 18.9604 7.32038C19.0777 6.62181 18.9261 5.90546 18.5349 5.31022C18.1437 4.71498 17.5408 4.28325 16.8431 4.09874C16.1455 3.91422 15.4028 3.99007 14.759 4.31157C14.1152 4.63307 13.6161 5.17732 13.3586 5.8388C13.1011 6.50029 13.1035 7.23188 13.3653 7.89173L10.0047 10.0079C9.60005 9.60083 9.08066 9.32127 8.51297 9.20493C7.94527 9.08859 7.35506 9.14075 6.81778 9.35474C6.2805 9.56872 5.82056 9.93482 5.49676 10.4062C5.17296 10.8776 5 11.4329 5 12.0011C5 12.5694 5.17296 13.1247 5.49676 13.5961C5.82056 14.0675 6.2805 14.4336 6.81778 14.6476C7.35506 14.8615 7.94527 14.9137 8.51297 14.7974C9.08066 14.681 9.60005 14.4015 10.0047 13.9944L13.3653 16.1106C13.1402 16.6794 13.1069 17.304 13.2703 17.8927C13.4337 18.4815 13.7852 19.0035 14.2733 19.3824C14.7614 19.7613 15.3606 19.9771 15.983 19.9983C16.6054 20.0194 17.2183 19.8448 17.7321 19.5C18.2459 19.1552 18.6334 18.6582 18.8381 18.082C19.0427 17.5057 19.0537 16.8804 18.8693 16.2977C18.685 15.7149 18.315 15.2052 17.8136 14.8433C17.3122 14.4814 16.7058 14.2863 16.083 14.2865ZM16.083 5.14498C16.429 5.14498 16.7673 5.24551 17.055 5.43385C17.3427 5.62219 17.5669 5.88989 17.6994 6.20309C17.8318 6.51629 17.8664 6.86092 17.7989 7.19341C17.7314 7.52591 17.5648 7.83132 17.3201 8.07103C17.0754 8.31074 16.7637 8.47399 16.4243 8.54013C16.0849 8.60626 15.7331 8.57232 15.4135 8.44259C15.0938 8.31286 14.8205 8.09316 14.6283 7.81129C14.436 7.52942 14.3334 7.19803 14.3334 6.85902C14.3334 6.40443 14.5178 5.96846 14.8459 5.64701C15.174 5.32557 15.619 5.14498 16.083 5.14498ZM7.91838 13.7152C7.57235 13.7152 7.23409 13.6147 6.94638 13.4263C6.65867 13.238 6.43442 12.9703 6.302 12.6571C6.16958 12.3439 6.13494 11.9992 6.20244 11.6668C6.26995 11.3343 6.43658 11.0288 6.68126 10.7891C6.92594 10.5494 7.23768 10.3862 7.57706 10.32C7.91644 10.2539 8.26822 10.2878 8.58791 10.4176C8.9076 10.5473 9.18084 10.767 9.37309 11.0489C9.56533 11.3307 9.66794 11.6621 9.66794 12.0011C9.66794 12.4557 9.48361 12.8917 9.15551 13.2132C8.8274 13.5346 8.38239 13.7152 7.91838 13.7152ZM16.083 18.8573C15.737 18.8573 15.3987 18.7568 15.111 18.5684C14.8233 18.3801 14.599 18.1124 14.4666 17.7992C14.3342 17.486 14.2995 17.1414 14.367 16.8089C14.4346 16.4764 14.6012 16.171 14.8459 15.9313C15.0905 15.6915 15.4023 15.5283 15.7417 15.4622C16.081 15.396 16.4328 15.43 16.7525 15.5597C17.0722 15.6894 17.3454 15.9091 17.5377 16.191C17.7299 16.4729 17.8325 16.8043 17.8325 17.1433C17.8325 17.5979 17.6482 18.0338 17.3201 18.3553C16.992 18.6767 16.547 18.8573 16.083 18.8573Z" fill="white"/>
</svg>
