<svg width="25" height="24" viewBox="0 0 25 24" fill="none" xmlns="http://www.w3.org/2000/svg">
<g clip-path="url(#clip0_461_21257)">
<path d="M14.7499 7.49965C14.7499 7.30074 14.8289 7.10998 14.9696 6.96932C15.1102 6.82867 15.301 6.74965 15.4999 6.74965H23.7499C23.9488 6.74965 24.1396 6.82867 24.2802 6.96932C24.4209 7.10998 24.4999 7.30074 24.4999 7.49965C24.4999 7.69857 24.4209 7.88933 24.2802 8.02998C24.1396 8.17064 23.9488 8.24965 23.7499 8.24965H15.4999C15.301 8.24965 15.1102 8.17064 14.9696 8.02998C14.8289 7.88933 14.7499 7.69857 14.7499 7.49965ZM23.7499 11.2497H15.4999C15.301 11.2497 15.1102 11.3287 14.9696 11.4693C14.8289 11.61 14.7499 11.8007 14.7499 11.9997C14.7499 12.1986 14.8289 12.3893 14.9696 12.53C15.1102 12.6706 15.301 12.7497 15.4999 12.7497H23.7499C23.9488 12.7497 24.1396 12.6706 24.2802 12.53C24.4209 12.3893 24.4999 12.1986 24.4999 11.9997C24.4999 11.8007 24.4209 11.61 24.2802 11.4693C24.1396 11.3287 23.9488 11.2497 23.7499 11.2497ZM23.7499 15.7497H17.7499C17.551 15.7497 17.3602 15.8287 17.2196 15.9693C17.0789 16.11 16.9999 16.3007 16.9999 16.4997C16.9999 16.6986 17.0789 16.8893 17.2196 17.03C17.3602 17.1706 17.551 17.2497 17.7499 17.2497H23.7499C23.9488 17.2497 24.1396 17.1706 24.2802 17.03C24.4209 16.8893 24.4999 16.6986 24.4999 16.4997C24.4999 16.3007 24.4209 16.11 24.2802 15.9693C24.1396 15.8287 23.9488 15.7497 23.7499 15.7497ZM10.7458 13.3122C11.4902 12.7388 12.0364 11.9469 12.3079 11.0475C12.5794 10.148 12.5626 9.18611 12.2598 8.29671C11.9569 7.4073 11.3833 6.63498 10.6194 6.08806C9.85542 5.54115 8.93943 5.24707 7.99989 5.24707C7.06035 5.24707 6.14436 5.54115 5.38041 6.08806C4.61645 6.63498 4.04284 7.4073 3.74003 8.29671C3.43721 9.18611 3.42037 10.148 3.69187 11.0475C3.96338 11.9469 4.50961 12.7388 5.25395 13.3122C3.32083 14.1306 1.79739 15.7778 1.27333 17.8122C1.2447 17.923 1.24184 18.039 1.26496 18.1511C1.28808 18.2632 1.33656 18.3686 1.4067 18.4591C1.47684 18.5496 1.56676 18.6228 1.66958 18.6732C1.77241 18.7236 1.88539 18.7497 1.99989 18.7497H13.9999C14.1144 18.7497 14.2274 18.7236 14.3302 18.6732C14.433 18.6228 14.5229 18.5496 14.5931 18.4591C14.6632 18.3686 14.7117 18.2632 14.7348 18.1511C14.7579 18.039 14.7551 17.923 14.7265 17.8122C14.2024 15.7768 12.679 14.1297 10.7458 13.3122Z" fill="#868E96"/>
</g>
<defs>
<clipPath id="clip0_461_21257">
<rect width="24" height="24" fill="white" transform="translate(0.5)"/>
</clipPath>
</defs>
</svg>
