<svg width="25" height="24" viewBox="0 0 25 24" fill="none" xmlns="http://www.w3.org/2000/svg">
<path d="M6.51126 13.8559C6.5138 13.9067 6.50599 13.9575 6.48828 14.0052C6.47058 14.0529 6.44336 14.0964 6.40828 14.1333C6.3732 14.1701 6.331 14.1994 6.28423 14.2194C6.23747 14.2394 6.18712 14.2497 6.13626 14.2497H2.00001C1.83073 14.2499 1.66634 14.1929 1.53358 14.0879C1.40081 13.9829 1.30748 13.836 1.26876 13.6712C1.24465 13.5584 1.24576 13.4417 1.27202 13.3294C1.29827 13.2171 1.34902 13.1119 1.42064 13.0215C2.08233 12.144 2.96028 11.4531 3.96876 11.0162C3.526 10.6125 3.18642 10.1086 2.97846 9.54672C2.77049 8.98481 2.7002 8.38124 2.77346 7.78658C2.84672 7.19191 3.06141 6.62346 3.39955 6.12883C3.73768 5.63419 4.18941 5.22779 4.71691 4.94364C5.24441 4.65949 5.83232 4.50588 6.43139 4.49566C7.03047 4.48545 7.62327 4.61893 8.16015 4.88493C8.69703 5.15093 9.16235 5.5417 9.51715 6.02452C9.87195 6.50734 10.1059 7.06814 10.1994 7.65997C10.2115 7.73955 10.1972 7.8209 10.1588 7.89164C10.1204 7.96238 10.0599 8.01863 9.98657 8.05184C8.94631 8.53276 8.06532 9.30119 7.44755 10.2665C6.82977 11.2318 6.50099 12.3536 6.50001 13.4997C6.50001 13.6197 6.50001 13.7378 6.51126 13.8559ZM23.5738 13.0206C22.9136 12.1441 22.0376 11.4535 21.0313 11.0162C21.474 10.6125 21.8136 10.1086 22.0216 9.54672C22.2295 8.98481 22.2998 8.38124 22.2266 7.78658C22.1533 7.19191 21.9386 6.62346 21.6005 6.12883C21.2623 5.63419 20.8106 5.22779 20.2831 4.94364C19.7556 4.65949 19.1677 4.50588 18.5686 4.49566C17.9696 4.48545 17.3768 4.61893 16.8399 4.88493C16.303 5.15093 15.8377 5.5417 15.4829 6.02452C15.1281 6.50734 14.8941 7.06814 14.8006 7.65997C14.7886 7.73955 14.8028 7.8209 14.8412 7.89164C14.8796 7.96238 14.9401 8.01863 15.0134 8.05184C16.0537 8.53276 16.9347 9.30119 17.5525 10.2665C18.1702 11.2318 18.499 12.3536 18.5 13.4997C18.5 13.6197 18.5 13.7378 18.4888 13.8559C18.4862 13.9067 18.494 13.9575 18.5117 14.0052C18.5294 14.0529 18.5567 14.0964 18.5917 14.1333C18.6268 14.1701 18.669 14.1994 18.7158 14.2194C18.7626 14.2394 18.8129 14.2497 18.8638 14.2497H23C23.1693 14.2499 23.3337 14.1929 23.4664 14.0879C23.5992 13.9829 23.6925 13.836 23.7313 13.6712C23.7555 13.5582 23.7544 13.4412 23.728 13.3287C23.7015 13.2162 23.6505 13.111 23.5784 13.0206H23.5738ZM15.23 17.0687C15.9768 16.4968 16.5256 15.7053 16.7992 14.8054C17.0729 13.9055 17.0577 12.9424 16.7558 12.0516C16.4538 11.1608 15.8804 10.3869 15.1159 9.83887C14.3515 9.29081 13.4345 8.99607 12.4939 8.99607C11.5533 8.99607 10.6364 9.29081 9.87191 9.83887C9.10747 10.3869 8.53399 11.1608 8.23206 12.0516C7.93012 12.9424 7.91493 13.9055 8.1886 14.8054C8.46227 15.7053 9.01106 16.4968 9.75782 17.0687C8.4327 17.6429 7.3262 18.6262 6.60032 19.8747C6.53449 19.9887 6.49983 20.118 6.49984 20.2497C6.49985 20.3814 6.53452 20.5107 6.60036 20.6247C6.66621 20.7387 6.76091 20.8334 6.87495 20.8992C6.98899 20.9651 7.11834 20.9997 7.25001 20.9997H17.75C17.8817 20.9997 18.011 20.9651 18.1251 20.8992C18.2391 20.8334 18.3338 20.7387 18.3997 20.6247C18.4655 20.5107 18.5002 20.3814 18.5002 20.2497C18.5002 20.118 18.4655 19.9887 18.3997 19.8747C17.6723 18.6254 16.5637 17.642 15.2366 17.0687H15.23Z" fill="#868E96"/>
</svg>
