<svg width="16" height="16" viewBox="0 0 16 16" fill="none" xmlns="http://www.w3.org/2000/svg">
<path d="M12.854 12.146C12.9005 12.1925 12.9373 12.2476 12.9625 12.3083C12.9876 12.369 13.0006 12.4341 13.0006 12.4998C13.0006 12.5655 12.9876 12.6305 12.9625 12.6912C12.9373 12.7519 12.9005 12.8071 12.854 12.8535C12.8076 12.9 12.7524 12.9368 12.6917 12.962C12.631 12.9871 12.566 13.0001 12.5003 13.0001C12.4346 13.0001 12.3695 12.9871 12.3088 12.962C12.2481 12.9368 12.193 12.9 12.1465 12.8535L8.00028 8.70666L3.85403 12.8535C3.76021 12.9474 3.63296 13.0001 3.50028 13.0001C3.3676 13.0001 3.24035 12.9474 3.14653 12.8535C3.05271 12.7597 3 12.6325 3 12.4998C3 12.3671 3.05271 12.2399 3.14653 12.146L7.2934 7.99979L3.14653 3.85354C3.05271 3.75972 3 3.63247 3 3.49979C3 3.36711 3.05271 3.23986 3.14653 3.14604C3.24035 3.05222 3.3676 2.99951 3.50028 2.99951C3.63296 2.99951 3.76021 3.05222 3.85403 3.14604L8.00028 7.29291L12.1465 3.14604C12.2403 3.05222 12.3676 2.99951 12.5003 2.99951C12.633 2.99951 12.7602 3.05222 12.854 3.14604C12.9478 3.23986 13.0006 3.36711 13.0006 3.49979C13.0006 3.63247 12.9478 3.75972 12.854 3.85354L8.70715 7.99979L12.854 12.146Z" fill="white"/>
</svg>
