<svg width="24" height="24" viewBox="0 0 24 24" fill="none" xmlns="http://www.w3.org/2000/svg">
<path d="M12 1.5C10.6211 1.5 9.25574 1.77159 7.98182 2.29926C6.70791 2.82694 5.55039 3.60036 4.57538 4.57538C3.60036 5.55039 2.82694 6.70791 2.29926 7.98182C1.77159 9.25574 1.5 10.6211 1.5 12C1.5 13.3789 1.77159 14.7443 2.29927 16.0182C2.82694 17.2921 3.60036 18.4496 4.57538 19.4246C5.55039 20.3996 6.70791 21.1731 7.98182 21.7007C9.25574 22.2284 10.6211 22.5 12 22.5L12 12V1.5Z" fill="#CCCCCC"/>
<path d="M1.5 12C1.5 13.3789 1.77159 14.7443 2.29926 16.0182C2.82694 17.2921 3.60036 18.4496 4.57538 19.4246C5.55039 20.3996 6.70791 21.1731 7.98182 21.7007C9.25574 22.2284 10.6211 22.5 12 22.5C13.3789 22.5 14.7443 22.2284 16.0182 21.7007C17.2921 21.1731 18.4496 20.3996 19.4246 19.4246C20.3996 18.4496 21.1731 17.2921 21.7007 16.0182C22.2284 14.7443 22.5 13.3789 22.5 12L12 12L1.5 12Z" fill="#CCCCCC"/>
<path fill-rule="evenodd" clip-rule="evenodd" d="M12.0011 11.998L1.5 11.998C1.50051 13.3757 1.77212 14.7399 2.29935 16.0127C2.82708 17.2868 3.60059 18.4444 4.57571 19.4195C5.55083 20.3947 6.70847 21.1682 7.98252 21.6959C9.25658 22.2236 10.6221 22.4953 12.0011 22.4953L12.0011 11.998Z" fill="#AAAAAA"/>
<path d="M13.5 6C15.4953 6 18 3.49528 18 1.5C18 3.49528 20.5047 6 22.5 6C20.5047 6 18 8.50472 18 10.5C18 8.49057 15.4953 6 13.5 6Z" fill="#CCCCCC"/>
</svg>
